<svg xmlns="http://www.w3.org/2000/svg" width="1600" height="900" viewBox="0 0 1600 900" role="img" aria-labelledby="titulo desc" font-family="Arial, Helvetica, 'Liberation Sans', sans-serif">
<title id="titulo">Ocho variables, una sola performance</title>
<desc id="desc">Un avión de transporte visto desde arriba en el umbral de una pista, rodeado por ocho etiquetas que apuntan hacia él: weight, temperature, pressure altitude, wind, runway, slope, obstacles y aircraft configuration, cada una con su traducción debajo.</desc>
<defs><marker id="f-tinta" viewBox="0 0 10 10" refX="8.5" refY="5" markerWidth="5.5" markerHeight="5.5" orient="auto-start-reverse"><path d="M0 0 10 5 0 10z" fill="#231F1A"/></marker><marker id="f-acento" viewBox="0 0 10 10" refX="8.5" refY="5" markerWidth="5.5" markerHeight="5.5" orient="auto-start-reverse"><path d="M0 0 10 5 0 10z" fill="#8A4B1F"/></marker><marker id="f-acento2" viewBox="0 0 10 10" refX="8.5" refY="5" markerWidth="5.5" markerHeight="5.5" orient="auto-start-reverse"><path d="M0 0 10 5 0 10z" fill="#C97B3C"/></marker><marker id="f-magenta" viewBox="0 0 10 10" refX="8.5" refY="5" markerWidth="5.5" markerHeight="5.5" orient="auto-start-reverse"><path d="M0 0 10 5 0 10z" fill="#B0198F"/></marker><marker id="f-suave" viewBox="0 0 10 10" refX="8.5" refY="5" markerWidth="5.5" markerHeight="5.5" orient="auto-start-reverse"><path d="M0 0 10 5 0 10z" fill="#6F665B"/></marker><marker id="f-ambar" viewBox="0 0 10 10" refX="8.5" refY="5" markerWidth="5.5" markerHeight="5.5" orient="auto-start-reverse"><path d="M0 0 10 5 0 10z" fill="#A86400"/></marker><marker id="f-gris" viewBox="0 0 10 10" refX="8.5" refY="5" markerWidth="5.5" markerHeight="5.5" orient="auto-start-reverse"><path d="M0 0 10 5 0 10z" fill="#A89F94"/></marker><marker id="f-verde" viewBox="0 0 10 10" refX="8.5" refY="5" markerWidth="5.5" markerHeight="5.5" orient="auto-start-reverse"><path d="M0 0 10 5 0 10z" fill="#2E7A4B"/></marker><marker id="f-rojo" viewBox="0 0 10 10" refX="8.5" refY="5" markerWidth="5.5" markerHeight="5.5" orient="auto-start-reverse"><path d="M0 0 10 5 0 10z" fill="#B3372B"/></marker></defs>
<rect width="1600" height="900" rx="24" fill="#FCFAF6"/>
<text x="56" y="84" font-size="44" font-weight="700" fill="#231F1A">Ocho variables, una sola performance</text>
<text x="56" y="124" font-size="24" fill="#6F665B">No sale de la potencia de los motores: sale de todo esto a la vez</text>
<rect x="200" y="460" width="1200" height="120" rx="6" fill="#231F1A"/><path d="M240 520L1360 520" fill="none" stroke="#FFFFFF" stroke-width="4" stroke-linecap="round" stroke-linejoin="round" stroke-dasharray="30 24"/><rect x="220" y="470" width="40" height="7" fill="#FFFFFF"/><rect x="220" y="483" width="40" height="7" fill="#FFFFFF"/><rect x="220" y="496" width="40" height="7" fill="#FFFFFF"/><rect x="220" y="509" width="40" height="7" fill="#FFFFFF"/><rect x="220" y="522" width="40" height="7" fill="#FFFFFF"/><rect x="220" y="535" width="40" height="7" fill="#FFFFFF"/><rect x="220" y="548" width="40" height="7" fill="#FFFFFF"/><rect x="220" y="561" width="40" height="7" fill="#FFFFFF"/><path d="M0 -30C3 -30 4 -26 4 -20L4 -6L30 6L30 11L4 5L4 18L11 24L11 28L0 25.5L-11 28L-11 24L-4 18L-4 5L-30 11L-30 6L-4 -6L-4 -20C-4 -26 -3 -30 0 -30Z" fill="#8A4B1F" transform="translate(800 520) rotate(90) scale(4.2)"/><path d="M640 310L760 465" fill="none" stroke="#C97B3C" stroke-width="2.5" stroke-linecap="round" stroke-linejoin="round"/><circle cx="760" cy="465" r="6" fill="#C97B3C"/><rect x="545" y="232" width="190" height="78" rx="14" fill="#FFFFFF" stroke="#8A4B1F" stroke-width="2.5"/><text x="640" y="266" font-size="26" font-weight="700" fill="#8A4B1F" text-anchor="middle" font-style="italic">Weight</text><text x="640" y="296" font-size="20" fill="#6F665B" text-anchor="middle">peso</text><path d="M970 310L842.5 465" fill="none" stroke="#C97B3C" stroke-width="2.5" stroke-linecap="round" stroke-linejoin="round"/><circle cx="842.5" cy="465" r="6" fill="#C97B3C"/><rect x="867.5" y="232" width="205" height="78" rx="14" fill="#FFFFFF" stroke="#8A4B1F" stroke-width="2.5"/><text x="970" y="266" font-size="26" font-weight="700" fill="#8A4B1F" text-anchor="middle" font-style="italic">Temperature</text><text x="970" y="296" font-size="20" fill="#6F665B" text-anchor="middle">temperatura</text><path d="M240 330L660 469.4" fill="none" stroke="#C97B3C" stroke-width="2.5" stroke-linecap="round" stroke-linejoin="round"/><circle cx="660" cy="469.4" r="6" fill="#C97B3C"/><rect x="92.5" y="252" width="295" height="78" rx="14" fill="#FFFFFF" stroke="#8A4B1F" stroke-width="2.5"/><text x="240" y="286" font-size="26" font-weight="700" fill="#8A4B1F" text-anchor="middle" font-style="italic">Pressure Altitude</text><text x="240" y="316" font-size="20" fill="#6F665B" text-anchor="middle">altitud de presión</text><path d="M1320 330L930 469.4" fill="none" stroke="#C97B3C" stroke-width="2.5" stroke-linecap="round" stroke-linejoin="round"/><circle cx="930" cy="469.4" r="6" fill="#C97B3C"/><rect x="1225" y="252" width="190" height="78" rx="14" fill="#FFFFFF" stroke="#8A4B1F" stroke-width="2.5"/><text x="1320" y="286" font-size="26" font-weight="700" fill="#8A4B1F" text-anchor="middle" font-style="italic">Wind</text><text x="1320" y="316" font-size="20" fill="#6F665B" text-anchor="middle">viento</text><path d="M240 710L660 570.6" fill="none" stroke="#C97B3C" stroke-width="2.5" stroke-linecap="round" stroke-linejoin="round"/><circle cx="660" cy="570.6" r="6" fill="#C97B3C"/><rect x="145" y="712" width="190" height="78" rx="14" fill="#FFFFFF" stroke="#8A4B1F" stroke-width="2.5"/><text x="240" y="746" font-size="26" font-weight="700" fill="#8A4B1F" text-anchor="middle" font-style="italic">Runway</text><text x="240" y="776" font-size="20" fill="#6F665B" text-anchor="middle">pista</text><path d="M1320 710L930 570.6" fill="none" stroke="#C97B3C" stroke-width="2.5" stroke-linecap="round" stroke-linejoin="round"/><circle cx="930" cy="570.6" r="6" fill="#C97B3C"/><rect x="1225" y="712" width="190" height="78" rx="14" fill="#FFFFFF" stroke="#8A4B1F" stroke-width="2.5"/><text x="1320" y="746" font-size="26" font-weight="700" fill="#8A4B1F" text-anchor="middle" font-style="italic">Slope</text><text x="1320" y="776" font-size="20" fill="#6F665B" text-anchor="middle">pendiente</text><path d="M640 750L760 579.4" fill="none" stroke="#C97B3C" stroke-width="2.5" stroke-linecap="round" stroke-linejoin="round"/><circle cx="760" cy="579.4" r="6" fill="#C97B3C"/><rect x="545" y="752" width="190" height="78" rx="14" fill="#FFFFFF" stroke="#8A4B1F" stroke-width="2.5"/><text x="640" y="786" font-size="26" font-weight="700" fill="#8A4B1F" text-anchor="middle" font-style="italic">Obstacles</text><text x="640" y="816" font-size="20" fill="#6F665B" text-anchor="middle">obstáculos</text><path d="M970 750L842.5 579.4" fill="none" stroke="#C97B3C" stroke-width="2.5" stroke-linecap="round" stroke-linejoin="round"/><circle cx="842.5" cy="579.4" r="6" fill="#C97B3C"/><rect x="785" y="752" width="370" height="78" rx="14" fill="#FFFFFF" stroke="#8A4B1F" stroke-width="2.5"/><text x="970" y="786" font-size="26" font-weight="700" fill="#8A4B1F" text-anchor="middle" font-style="italic">Aircraft Configuration</text><text x="970" y="816" font-size="20" fill="#6F665B" text-anchor="middle">configuración</text>
<text x="1560" y="876" font-size="20" font-weight="700" fill="#A89F94" text-anchor="end" letter-spacing="1">PERF-01</text>
</svg>
